<?xml version="1.0" encoding="utf-8"?>
<!DOCTYPE svg PUBLIC "-//W3C//DTD SVG 1.0//EN" "http://www.w3.org/TR/2001/REC-SVG-20010904/DTD/svg10.dtd">
<svg version="1.0" xmlns="http://www.w3.org/2000/svg" width="2000px" height="2000px" viewBox="0 0 2000 2000" preserveAspectRatio="xMidYMid meet">
 <g fill="#30454b">
  <path d="M102.54 1532.23 c-0.98 -0.39 -4.30 -1.17 -7.23 -1.76 -8.79 -1.95 -6.84 -7.03 2.34 -7.03 7.03 0 7.81 0.59 7.81 4.88 0 2.73 -0.20 4.88 -0.39 4.69 -0.39 0 -1.37 -0.39 -2.54 -0.78z"/>
  <path d="M187.50 1529.30 c0 -3.32 1.37 -3.91 8.79 -3.91 7.42 0 8.79 0.59 8.79 3.91 0 3.32 -1.37 3.91 -8.79 3.91 -7.42 0 -8.79 -0.59 -8.79 -3.91z"/>
  <path d="M77.15 1521.29 c-6.05 -5.47 -12.70 -14.84 -12.70 -18.36 0 -0.59 2.15 -0.98 4.88 -0.98 2.93 0 4.88 1.17 4.88 2.73 0 1.56 1.37 3.13 2.93 3.91 1.56 0.59 2.93 2.34 2.93 4.10 0 1.56 1.37 2.93 2.93 2.93 1.95 0 2.93 1.95 2.93 5.86 0 3.32 -0.39 5.86 -0.98 5.86 -0.39 0 -3.91 -2.73 -7.81 -6.05z"/>
  <path d="M1914.06 1521.68 c0 -3.91 0.98 -6.05 2.73 -6.05 1.37 0 3.13 -1.76 3.71 -3.91 0.78 -2.93 2.73 -3.91 7.03 -3.91 3.32 0 6.05 0.59 6.05 1.56 -0.20 2.34 -8.79 11.33 -14.26 15.04 l-5.27 3.32 0 -6.05z"/>
  <path d="M95.70 1494.34 c-1.37 -2.73 -1.95 -157.81 -1.95 -487.50 l0 -483.59 4.69 -4.69 c2.54 -2.54 7.62 -5.08 11.13 -5.86 3.71 -0.59 407.23 -0.78 896.68 -0.59 l890.23 0.59 5.27 5.47 5.47 5.27 0.59 482.62 c0.39 265.43 0.20 484.77 -0.39 487.30 l-1.17 4.69 -904.30 0 c-891.99 0 -904.10 0 -906.25 -3.71z m446.29 -442.97 c10.35 -5.27 14.65 -10.55 14.65 -17.97 0 -3.91 1.37 -8.79 2.93 -10.74 9.57 -12.70 -6.25 -40.43 -25.78 -45.90 -8.98 -2.54 -19.53 -2.73 -20.90 -0.39 -0.59 0.98 -4.10 2.34 -7.62 2.93 -4.69 0.98 -6.84 2.73 -8.59 7.03 -3.13 8.40 -12.50 8.20 -19.73 -0.20 -6.25 -7.62 -15.23 -11.52 -26.37 -11.52 l-8.59 0 -0.98 -9.96 c-1.17 -11.91 -5.08 -16.21 -13.67 -15.82 -3.52 0.20 -25.59 1.17 -49.02 1.95 -41.80 1.37 -42.77 1.37 -46.48 6.05 -2.93 3.52 -3.52 6.25 -2.54 11.72 1.56 9.18 5.47 11.91 16.80 11.91 l9.38 0 0 33.20 c0 30.66 0.39 33.59 3.91 37.11 2.54 2.54 6.45 3.91 11.33 3.91 14.45 0 16.02 -4.10 16.02 -42.97 l0 -31.45 11.33 0.59 11.13 0.59 0.98 33.79 c0.98 30.66 1.37 34.18 4.69 36.72 5.66 4.10 17.38 3.52 21.68 -1.17 2.15 -2.54 6.05 -3.91 10.16 -3.91 3.91 0 8.98 1.76 11.72 3.91 2.73 2.15 8.01 3.91 11.52 3.91 6.45 0 14.45 -5.47 14.45 -9.77 0 -2.54 13.09 -2.54 14.65 0 0.59 1.17 4.10 3.52 7.42 5.27 13.09 6.84 23.44 7.03 35.55 1.17z m115.23 -0.39 c4.30 -1.95 8.98 -4.88 10.55 -6.64 2.93 -3.71 18.75 -4.69 20.70 -1.37 0.78 1.17 5.86 4.30 11.33 7.23 12.89 6.45 23.24 6.45 36.52 -0.20 12.70 -6.45 18.75 -6.45 24.61 -0.20 5.66 6.05 15.82 6.45 22.85 0.98 2.73 -2.15 7.23 -3.91 10.16 -3.91 2.93 0 7.42 1.76 10.16 3.91 2.73 2.15 7.81 3.91 11.33 3.91 3.71 0 7.62 -1.56 9.77 -3.91 4.30 -4.88 14.06 -5.08 18.95 -0.59 5.08 4.49 52.93 5.66 56.45 1.37 2.93 -3.52 15.43 -3.32 20.12 0.20 5.66 4.30 17.38 3.71 21.68 -0.98 2.15 -2.34 6.05 -3.91 9.77 -3.91 3.71 0 7.62 1.56 9.77 3.91 4.30 4.88 18.75 5.47 22.46 0.98 3.13 -3.71 14.45 -3.71 20.31 0 2.54 1.76 7.03 2.93 10.16 2.93 3.13 0 20.90 -0.20 39.65 -0.59 32.81 -0.39 33.98 -0.59 36.72 -4.69 4.10 -6.25 13.48 -6.05 19.34 0.39 5.86 6.25 17.97 6.84 23.24 0.98 4.69 -5.08 14.45 -5.08 24.61 0 4.30 2.34 10.16 3.91 13.09 3.91 2.93 -0.20 12.89 -0.39 22.07 -0.59 9.96 -0.20 17.97 -1.37 19.73 -2.93 2.34 -1.95 3.13 -10.16 4.30 -42.97 1.17 -40.43 0 -54.10 -5.08 -57.23 -4.30 -2.93 -18.55 -1.95 -21.88 1.37 -1.95 1.95 -3.13 6.45 -3.13 12.70 l0 9.57 -7.62 0 c-10.16 0 -19.53 3.52 -27.15 10.16 -8.79 7.42 -17.38 7.42 -24.80 -0.39 -2.93 -3.13 -8.20 -6.64 -11.52 -7.62 -4.88 -1.37 -24.61 -1.56 -44.34 -0.39 -1.76 0.20 -4.30 2.34 -5.66 5.08 -3.52 6.45 -11.52 6.45 -21.48 -0.20 -13.28 -8.79 -31.45 -8.20 -45.31 1.37 -7.62 5.47 -16.99 4.69 -23.83 -1.56 -4.88 -4.49 -7.23 -5.27 -15.63 -4.88 -13.09 0.59 -26.37 0.59 -55.66 0.20 -23.05 -0.39 -24.41 -0.20 -27.15 3.71 -3.91 5.86 -11.33 5.47 -23.83 -0.98 -9.38 -4.88 -10.74 -5.08 -18.75 -2.93 -10.35 2.73 -19.34 2.93 -24.02 0.59 -1.95 -1.17 -12.89 -1.37 -25.59 -0.78 -21.68 1.17 -22.07 1.37 -25.20 6.84 -4.10 7.03 -12.11 7.23 -19.92 0.59 -6.84 -5.47 -16.99 -8.79 -28.52 -8.79 -9.96 0 -14.26 1.56 -14.26 5.08 0 1.95 -2.34 2.73 -7.23 2.54 -6.64 0 -8.01 -0.98 -13.28 -9.18 -7.81 -12.11 -23.24 -20.70 -37.11 -20.70 -25.20 0 -48.63 25 -48.24 51.56 0.20 23.24 14.84 42.58 37.89 49.80 9.38 2.93 16.21 2.34 27.93 -2.73z m657.23 1.37 c2.73 -0.98 7.62 -3.91 11.13 -6.64 8.40 -6.25 18.36 -6.25 26.95 0.39 3.71 2.73 10.74 6.25 16.02 7.81 8.01 2.34 10.35 2.34 19.34 -0.20 5.66 -1.56 10.94 -3.91 11.52 -4.88 2.34 -3.71 15.43 -2.34 18.16 1.95 1.76 2.93 4.49 3.91 10.55 3.91 9.38 0 15.23 -4.30 15.23 -11.13 0 -3.91 0.98 -4.49 7.81 -4.49 6.64 0 7.81 0.59 7.81 4.30 0 7.23 5.47 11.33 15.04 11.33 7.42 0 8.98 -0.78 11.91 -5.86 2.54 -4.49 4.69 -5.86 9.57 -5.86 3.32 0 6.84 0.98 7.42 1.95 2.54 4.30 16.80 9.77 25 9.77 6.05 0 9.57 -1.17 12.11 -3.91 4.69 -5.08 14.45 -5.08 25 0.39 11.13 5.66 22.07 5.27 33.59 -0.98 11.72 -6.64 17.77 -6.64 22.85 -0.39 2.93 3.71 5.66 4.88 11.72 4.88 13.48 0 15.23 -3.13 15.23 -27.34 0 -22.27 0.59 -23.44 9.96 -23.44 6.25 0 11.52 -7.03 11.52 -15.63 0 -11.13 -4.10 -12.89 -28.13 -12.11 l-19.14 0.59 -2.15 5.86 c-1.76 4.69 -3.32 5.66 -8.40 5.66 -3.32 0 -7.42 -1.37 -8.79 -3.32 -3.91 -4.49 -17.38 -10.35 -24.41 -10.35 -3.32 0 -10.16 2.15 -15.23 4.88 -11.13 5.86 -18.75 6.25 -23.24 0.98 -1.76 -2.15 -5.47 -3.91 -8.01 -3.91 -4.10 0 -5.08 -1.17 -6.25 -7.23 -1.76 -10.35 -3.91 -12.30 -13.87 -12.30 -10.55 0 -18.16 6.45 -18.16 15.23 0 8.59 -11.33 11.13 -22.46 5.47 -4.10 -2.15 -11.13 -2.73 -28.13 -2.15 -21.48 0.78 -22.85 0.98 -26.56 5.66 -4.49 5.66 -14.65 6.84 -18.55 2.34 -1.17 -1.56 -6.05 -4.30 -10.74 -6.25 -9.77 -3.52 -25 -2.54 -29.69 2.34 -1.56 1.56 -5.66 2.73 -9.18 2.73 -5.47 0 -7.23 -1.37 -12.11 -8.98 -6.05 -9.77 -16.41 -16.80 -29.69 -20.31 -17.77 -4.69 -39.06 7.03 -50.20 27.54 -20.90 38.48 17.58 86.52 57.62 71.68z m-1115.23 -365.43 c17.77 -7.81 36.52 -16.02 41.60 -18.16 14.06 -5.47 16.99 -8.98 16.99 -20.12 0 -6.64 -0.98 -10.35 -3.52 -12.70 -2.15 -1.76 -23.24 -11.13 -47.27 -21.09 -32.81 -13.28 -44.34 -17.19 -46.68 -15.82 -2.15 1.37 -3.32 5.47 -3.71 12.89 -0.59 12.70 -1.56 12.11 26.95 22.85 l18.55 7.03 0 7.62 0 7.42 -14.65 5.27 c-8.01 2.73 -18.36 7.03 -22.85 9.38 l-8.40 4.30 0 11.33 c0 11.72 2.73 16.99 7.81 15.23 1.56 -0.39 17.38 -7.42 35.16 -15.43z"/>
  <path d="M625.78 1023.24 c-2.93 -3.32 -3.71 -7.03 -3.71 -19.73 0 -14.06 0.59 -16.02 4.69 -19.34 3.13 -2.54 7.62 -3.71 14.26 -3.71 8.40 0 10.35 0.78 14.84 5.86 4.30 4.88 6.64 5.86 14.45 5.86 l9.38 0 0 7.62 c0 12.11 -1.37 13.87 -10.74 13.87 -7.23 0 -8.98 0.98 -13.48 6.84 -4.88 6.25 -6.05 6.84 -15.63 6.84 -8.01 0 -11.13 -0.98 -14.06 -4.10z"/>
  <path d="M707.81 1022.66 c-0.59 -1.37 -0.78 -6.45 -0.39 -11.13 0.59 -8.59 0.59 -8.59 8.98 -9.18 9.18 -0.59 9.57 0.20 7.03 15.82 -1.17 6.64 -1.76 7.23 -8.01 7.23 -3.71 0 -7.03 -1.17 -7.62 -2.73z"/>
  <path d="M1167.97 1013.67 l0 -9.77 6.64 0 c11.13 0 12.89 1.56 12.89 10.94 l0 8.59 -9.77 0 -9.77 0 0 -9.77z"/>
  <path d="M1286.13 1024.61 c-2.73 -1.95 -3.91 -5.86 -4.49 -15.63 -1.56 -23.05 1.95 -28.52 18.36 -28.52 9.18 0 11.13 0.78 15.43 5.66 4.49 4.88 5.86 5.47 14.65 4.49 l9.77 -0.98 0 6.84 c0 3.91 -0.59 9.77 -1.17 13.09 -1.37 6.05 -1.76 6.25 -9.96 5.86 -7.42 -0.59 -9.18 0.20 -14.26 5.66 -4.88 5.47 -7.03 6.25 -15.23 6.25 -5.08 0 -11.13 -1.17 -13.09 -2.73z"/>
  <path d="M60.94 1435.16 c0.59 -45.31 0.78 -49.41 4.10 -50 3.13 -0.59 3.32 2.73 3.32 49.22 0 48.83 0 50 -3.91 50 -3.91 0 -3.91 -0.98 -3.52 -49.22z"/>
  <path d="M1933.59 1394.53 c0 -27.93 0.20 -29.30 3.91 -29.30 3.71 0 3.91 1.37 3.91 29.30 0 27.93 -0.20 29.30 -3.91 29.30 -3.71 0 -3.91 -1.37 -3.91 -29.30z"/>
  <path d="M1933.59 1348.63 c0 -7.42 0.59 -8.79 3.91 -8.79 3.32 0 3.91 1.37 3.91 8.79 0 7.42 -0.59 8.79 -3.91 8.79 -3.32 0 -3.91 -1.37 -3.91 -8.79z"/>
  <path d="M60.55 1320.31 c0 -18.16 0.20 -19.53 3.91 -19.53 3.71 0 3.91 1.37 3.91 19.53 0 18.16 -0.20 19.53 -3.91 19.53 -3.71 0 -3.91 -1.37 -3.91 -19.53z"/>
  <path d="M1933.59 1298.83 c0 -29.88 0.20 -31.25 3.91 -31.25 3.71 0 3.91 1.37 3.91 31.25 0 29.88 -0.20 31.25 -3.91 31.25 -3.71 0 -3.91 -1.37 -3.91 -31.25z"/>
  <path d="M60.55 1098.63 c0 -89.45 0 -90.82 3.91 -90.82 3.91 0 3.91 1.37 3.91 90.82 0 89.45 0 90.82 -3.91 90.82 -3.91 0 -3.91 -1.37 -3.91 -90.82z"/>
  <path d="M62.50 919.92 c0 -6.45 0.59 -7.81 3.91 -7.81 3.32 0 3.91 1.37 3.91 7.81 0 6.45 -0.59 7.81 -3.91 7.81 -3.32 0 -3.91 -1.37 -3.91 -7.81z"/>
  <path d="M60.55 881.84 c0 -21.09 0.20 -22.46 3.91 -22.46 3.71 0 3.91 1.37 3.91 22.46 0 21.09 -0.20 22.46 -3.91 22.46 -3.71 0 -3.91 -1.37 -3.91 -22.46z"/>
  <path d="M60.55 845.70 c0 -8.40 0.59 -9.77 3.91 -9.77 3.32 0 3.91 1.37 3.91 9.77 0 8.40 -0.59 9.77 -3.91 9.77 -3.32 0 -3.91 -1.37 -3.91 -9.77z"/>
  <path d="M60.55 682.62 c0 -34.77 0.20 -36.13 3.91 -36.13 3.71 0 3.91 1.37 3.91 36.13 0 34.77 -0.20 36.13 -3.91 36.13 -3.71 0 -3.91 -1.37 -3.91 -36.13z"/>
  <path d="M60.55 635.74 c0 -5.47 0.78 -6.84 3.91 -6.84 3.13 0 3.91 1.37 3.91 6.84 0 5.47 -0.78 6.84 -3.91 6.84 -3.13 0 -3.91 -1.37 -3.91 -6.84z"/>
  <path d="M60.55 558.59 c0 -18.16 0.20 -19.53 3.91 -19.53 3.71 0 3.91 1.37 3.91 19.53 0 18.16 -0.20 19.53 -3.91 19.53 -3.71 0 -3.91 -1.37 -3.91 -19.53z"/>
  <path d="M60.55 439.45 c0 -43.55 0.20 -44.92 3.91 -44.92 3.71 0 3.91 1.37 3.91 44.92 0 43.55 -0.20 44.92 -3.91 44.92 -3.71 0 -3.91 -1.37 -3.91 -44.92z"/>
  <path d="M1931.64 387.70 c0 -7.23 4.30 -9.57 6.64 -3.71 2.34 6.25 1.17 10.55 -2.73 10.55 -3.13 0 -3.91 -1.37 -3.91 -6.84z"/>
  <path d="M1923.83 376.17 c0 -1.56 -1.37 -3.13 -2.93 -3.91 -1.56 -0.59 -2.93 -2.34 -2.93 -4.10 0 -1.56 -1.76 -2.93 -3.91 -2.93 -2.93 0 -3.91 -1.37 -3.91 -4.88 0 -2.73 1.17 -4.88 2.54 -4.88 3.91 0 16.80 11.52 19.92 17.77 2.93 5.66 2.93 5.66 -2.93 5.66 -3.71 0 -5.86 -0.98 -5.86 -2.73z"/>
  <path d="M68.16 371.29 c1.17 -1.95 5.27 -6.45 9.38 -10.16 l7.42 -6.45 0.59 5.47 c0.98 7.23 -6.25 14.84 -13.67 14.84 -4.88 0 -5.27 -0.39 -3.71 -3.71z"/>
  <path d="M1894.53 354.69 c0 -4.49 0.39 -4.69 6.25 -2.93 3.52 0.98 6.64 1.76 6.84 1.76 0.39 0 0.59 1.37 0.59 2.93 0 1.95 -2.15 2.93 -6.84 2.93 -5.86 0 -6.84 -0.59 -6.84 -4.69z"/>
  <path d="M95.70 354.69 c0 -3.13 4.10 -5.08 10.94 -5.08 3.32 0 4.69 1.17 4.69 3.91 0 3.32 -1.37 3.91 -7.81 3.91 -5.47 0 -7.81 -0.78 -7.81 -2.73z"/>
  <path d="M228.52 353.52 c0 -3.52 1.37 -3.91 11.72 -3.91 10.35 0 11.72 0.39 11.72 3.91 0 3.52 -1.37 3.91 -11.72 3.91 -10.35 0 -11.72 -0.39 -11.72 -3.91z"/>
  <path d="M269.53 353.52 c0 -3.91 1.37 -3.91 77.15 -3.91 75.78 0 77.15 0 77.15 3.91 0 3.91 -1.37 3.91 -77.15 3.91 -75.78 0 -77.15 0 -77.15 -3.91z"/>
  <path d="M494.14 353.52 c0 -3.71 1.37 -3.91 49.80 -3.91 48.44 0 49.80 0.20 49.80 3.91 0 3.71 -1.37 3.91 -49.80 3.91 -48.44 0 -49.80 -0.20 -49.80 -3.91z"/>
  <path d="M1119.14 353.52 c0 -3.52 1.37 -3.91 11.72 -3.91 10.35 0 11.72 0.39 11.72 3.91 0 3.52 -1.37 3.91 -11.72 3.91 -10.35 0 -11.72 -0.39 -11.72 -3.91z"/>
  <path d="M1658.20 353.52 c0 -3.71 1.37 -3.91 25.39 -3.91 24.02 0 25.39 0.20 25.39 3.91 0 3.71 -1.37 3.91 -25.39 3.91 -24.02 0 -25.39 -0.20 -25.39 -3.91z"/>
  <path d="M1710.94 353.52 c0 -3.52 1.37 -3.91 14.65 -3.91 13.28 0 14.65 0.39 14.65 3.91 0 3.52 -1.37 3.91 -14.65 3.91 -13.28 0 -14.65 -0.39 -14.65 -3.91z"/>
 </g>
 <g fill="#020302">
  <path d="M102.93 1532.03 c-0.59 -0.78 -3.91 -1.56 -7.23 -1.95 -10.94 -1.37 -22.27 -10.35 -30.08 -24.02 -3.52 -6.25 -3.52 -16.41 -3.52 -293.95 0.20 -158.01 0.20 -289.45 0.20 -292.19 -1.17 -156.25 -0.59 -532.03 0.78 -537.50 2.54 -9.77 17.58 -24.80 28.71 -28.91 8.20 -3.13 73.44 -3.32 907.23 -3.13 494.14 0.20 900.20 0.78 902.34 1.56 2.15 0.59 6.25 1.76 9.38 2.54 2.93 0.78 5.27 2.15 5.27 3.13 0 0.98 0.98 1.76 2.15 1.76 1.17 0 4.69 2.54 8.01 5.86 3.13 3.13 5.27 5.86 4.49 5.86 -0.59 0 0.59 1.95 2.93 4.30 2.15 2.34 3.91 5.27 4.10 6.25 0 1.17 0.59 3.91 1.37 6.05 0.59 2.15 1.17 251.76 1.17 554.69 0.20 530.08 0 551.17 -3.32 560.16 -1.95 5.08 -5.27 10.16 -7.42 11.13 -1.95 1.17 -3.71 3.32 -3.71 4.88 0 1.56 -1.37 2.93 -2.93 2.93 -1.56 0 -2.93 0.78 -2.93 1.76 0 0.98 -3.71 3.32 -8.20 5.27 -8.20 3.52 -36.13 3.71 -908.01 4.10 -494.73 0.39 -900.20 0 -900.78 -0.59z m1798.63 -44.53 c0.59 -2.73 0.78 -219.34 0.39 -481.45 l-0.59 -476.76 -5.47 -5.27 -5.27 -5.47 -884.38 -0.59 c-486.33 -0.20 -887.11 0 -890.82 0.59 -3.52 0.78 -8.59 3.32 -11.13 5.86 l-4.69 4.69 0 477.73 c0 325.59 0.59 478.91 1.95 481.64 2.15 3.71 14.26 3.71 900.39 3.71 l898.44 0 1.17 -4.69z m-1762.11 -1009.77 c-10.55 -4.88 -18.36 -13.48 -22.07 -24.41 -3.13 -9.38 -2.73 -30.27 0.78 -38.48 2.54 -6.25 13.67 -18.36 20.51 -22.27 1.95 -1.17 -2.15 -1.76 -11.91 -1.95 -13.28 0 -15.23 0.39 -19.53 5.08 -4.49 4.88 -4.69 6.25 -5.27 36.33 -0.39 17.38 -0.20 33.59 0.39 35.94 2.34 8.98 15.04 13.87 36.33 14.06 l10.74 0.20 -9.96 -4.49z m106.64 -0.78 c-15.82 -7.81 -22.27 -17.77 -23.24 -36.91 -0.39 -8.20 0.39 -18.36 1.76 -22.66 2.73 -9.18 9.38 -18.95 13.09 -18.95 1.37 0 2.54 -0.78 2.54 -1.56 0 -0.98 1.95 -2.54 4.30 -3.71 3.13 -1.37 -4.10 -2.15 -27.54 -3.13 -19.53 -0.98 -33.01 -0.59 -34.96 0.59 -2.93 1.56 -2.93 1.76 0.78 1.95 4.69 0 15.43 9.96 19.92 18.36 1.95 3.91 3.32 12.70 3.91 23.83 0.78 14.84 0.20 18.95 -3.13 25.39 -4.88 9.38 -15.23 18.36 -21.29 18.36 -2.54 0 -4.49 0.98 -4.49 1.95 0 1.17 14.45 1.95 39.65 1.95 l39.45 -0.20 -10.74 -5.27z m108.40 0.78 c-11.52 -5.27 -19.73 -14.06 -22.27 -24.22 -2.34 -8.79 -2.54 -32.62 -0.20 -38.28 1.56 -4.30 15.82 -19.53 21.29 -22.66 2.15 -1.17 -3.91 -1.76 -17.58 -1.95 -11.33 0 -27.73 -0.59 -36.13 -1.17 l-15.43 -1.17 8.79 4.69 c6.05 3.32 10.74 8.01 15.04 15.23 15.82 25.98 8.40 59.18 -15.04 68.36 -8.79 3.52 -8.79 3.52 -2.93 4.30 3.32 0.59 21.29 0.98 40.04 1.17 l34.18 0.20 -9.77 -4.49z m1523.63 1.76 c3.71 -0.59 8.59 -3.52 11.33 -7.03 5.08 -5.86 5.08 -6.45 5.08 -38.87 0 -32.03 -0.20 -33.20 -4.69 -38.48 l-4.69 -5.47 -748.44 -0.20 c-603.52 -0.20 -746.88 0.39 -741.21 2.34 9.38 3.13 15.82 9.38 21.68 20.70 9.18 18.16 4.69 52.15 -8.01 58.98 -1.95 1.17 -4.88 3.32 -6.45 4.69 -1.37 1.17 -4.30 2.34 -6.45 2.34 -1.95 0 -3.71 0.59 -3.71 1.56 0 1.56 1476.17 1.17 1485.55 -0.59z m-1701.37 -25 c0.20 -0.20 2.34 -3.32 4.69 -6.84 5.86 -8.59 4.30 -16.99 -4.69 -25.78 -9.57 -9.18 -18.16 -9.18 -27.34 0.20 -8.98 8.98 -10.35 16.41 -4.49 25.20 2.54 3.71 7.62 8.40 11.13 10.16 6.05 2.93 7.42 3.13 13.67 0.39 3.71 -1.56 7.03 -3.13 7.03 -3.32z m108.40 -1.56 c9.77 -11.33 9.57 -20.90 -1.17 -31.05 -10.94 -10.94 -25 -7.81 -33.20 7.03 -4.30 8.01 -2.54 15.04 6.25 23.83 6.05 6.05 7.42 6.64 15.43 5.86 5.86 -0.78 9.96 -2.54 12.70 -5.66z m102.15 3.71 c2.93 -1.37 7.03 -6.05 9.38 -10.55 4.30 -8.01 4.30 -8.01 0.59 -15.43 -8.20 -16.60 -21.88 -19.92 -33.59 -8.20 -5.86 6.05 -7.23 8.59 -7.23 15.23 0 6.64 1.17 8.98 7.42 14.65 7.81 7.23 14.45 8.40 23.44 4.30z"/>
  <path d="M512.70 1060.74 c-7.03 -1.76 -14.45 -5.47 -18.95 -9.57 -2.34 -1.95 -3.52 -2.15 -3.52 -0.78 0 1.37 -1.76 4.10 -3.91 6.25 -5.66 5.66 -26.56 5.66 -33.98 -0.20 l-5.27 -4.10 -4.49 4.10 c-3.52 3.32 -6.84 4.10 -16.99 4.10 -20.31 0 -20.12 0.39 -21.29 -39.45 l-0.98 -33.79 -5.27 -0.59 -5.47 -0.59 0 31.45 c0 30.47 -1.17 37.89 -6.64 41.41 -1.17 0.78 -8.01 1.56 -15.23 1.56 -20.90 0 -21.09 -0.39 -21.09 -41.02 l0 -33.20 -9.38 0 c-13.48 0 -15.82 -2.54 -17.19 -17.58 -1.17 -10.94 -0.78 -13.28 2.73 -17.58 4.30 -5.27 -2.15 -4.69 101.37 -8.40 15.04 -0.59 18.36 2.15 19.73 16.02 l0.98 9.96 8.59 0 c11.13 0 20.12 3.91 26.56 11.72 l5.47 6.25 2.34 -6.05 c1.17 -3.32 3.32 -6.05 4.69 -6.05 1.37 0 2.54 -0.98 2.54 -2.15 0 -1.17 1.76 -1.76 3.91 -1.17 2.15 0.59 4.49 -0.20 5.47 -1.56 1.76 -3.32 30.66 -0.59 38.67 3.52 7.81 4.10 15.63 12.70 19.14 21.29 3.71 8.59 4.10 27.34 0.78 33.40 -1.37 2.34 -2.15 6.84 -1.76 9.77 1.37 15.04 -29.49 28.91 -51.56 23.05z m-138.09 -55.47 l0.39 -36.52 11.72 0 c6.45 0 11.72 -0.78 11.72 -1.95 0 -1.17 -10.74 -1.95 -28.32 -1.95 -17.58 0 -28.32 0.78 -28.32 1.95 0 1.17 5.47 1.95 12.70 1.95 l12.70 0 0 37.30 c0 34.38 0.20 37.11 3.52 36.52 2.93 -0.59 3.32 -4.10 3.91 -37.30z m53.52 16.41 c0.59 -13.48 1.76 -22.46 3.32 -24.41 1.76 -2.15 1.95 -3.13 0.39 -3.13 -1.37 0 -2.15 -5.66 -2.15 -16.60 0 -15.23 -0.39 -16.60 -3.91 -16.60 -3.71 0 -3.91 1.37 -3.91 41.02 0 33.40 0.59 41.02 2.73 41.02 1.95 0 2.73 -5.08 3.52 -21.29z m44.34 3.32 c0 -21.09 -2.54 -29.88 -9.96 -35.35 -4.30 -3.32 -6.25 -3.52 -9.77 -1.76 l-4.49 2.15 4.49 0 c2.54 0.20 6.64 2.34 9.18 5.08 4.69 4.49 4.88 6.05 4.88 26.37 0 17.77 0.59 21.48 2.93 21.48 2.34 0 2.93 -3.32 2.73 -17.97z m59.77 16.99 c-4.88 -1.76 -20.90 -2.34 -18.36 -0.78 1.56 0.98 6.64 1.56 11.52 1.56 4.88 0 8.01 -0.39 6.84 -0.78z m-27.93 -26.76 c-0.59 -16.80 -0.98 -17.77 -3.32 -13.28 -3.71 6.45 -3.71 18.36 0 25.39 1.76 3.32 3.32 5.86 3.52 5.86 0.20 0 0.20 -8.20 -0.20 -17.97z m44.53 -7.62 c-2.54 -8.98 -3.91 -9.38 -3.91 -1.17 0 4.88 0.78 7.23 2.73 7.23 2.34 0 2.54 -1.37 1.17 -6.05z"/>
  <path d="M623.44 1059.57 c-17.58 -5.47 -33.59 -21.68 -36.91 -37.89 -2.54 -11.72 -1.37 -33.79 1.95 -41.80 5.08 -11.91 13.87 -21.68 25.20 -27.93 8.98 -4.88 12.30 -5.66 25.98 -5.66 13.67 0 16.99 0.78 26.37 5.86 7.42 4.10 12.50 8.59 16.60 15.04 6.05 9.38 8.79 11.52 8.79 6.64 0 -4.88 10.16 -6.64 26.76 -5.08 15.82 1.56 25 4.88 29.88 10.74 2.15 2.73 2.93 2.34 6.05 -2.73 2.54 -4.30 5.27 -5.86 10.94 -6.64 6.05 -0.78 33.20 -0.59 55.27 0.39 2.73 0.20 10.55 -0.20 17.58 -0.78 11.13 -1.17 13.87 -0.78 21.88 3.71 l8.98 4.88 2.93 -4.30 c2.54 -3.71 4.49 -4.30 17.77 -4.30 8.20 0 14.84 -0.59 14.84 -1.17 0 -1.76 24.22 -0.98 25.59 0.78 1.17 1.56 4.88 1.76 28.52 0.39 10.94 -0.59 16.99 0 18.75 1.56 10.55 9.77 10.55 9.77 15.82 6.25 2.73 -1.95 4.69 -4.10 4.10 -4.88 -1.17 -1.95 3.52 -2.34 27.54 -2.73 16.02 -0.20 18.36 0.20 25.39 4.88 7.62 5.08 8.01 5.08 10.35 1.56 1.17 -2.15 1.76 -4.69 1.17 -5.66 -0.59 -0.78 6.45 -1.56 15.63 -1.37 8.98 0 16.99 -0.39 17.58 -0.98 1.17 -1.17 10.55 -0.59 24.02 1.56 3.71 0.59 9.77 4.10 14.06 7.81 l7.42 6.84 6.64 -5.66 c7.62 -6.64 16.99 -10.16 27.15 -10.16 l7.62 0 0 -9.57 c0 -11.72 2.73 -14.84 14.45 -16.60 12.89 -1.95 24.22 1.56 25.98 8.20 0.98 2.93 1.37 27.15 0.98 54.10 -0.78 58.79 0.59 55.86 -23.63 55.86 -9.38 0.20 -21.68 0.20 -27.54 0.39 -7.62 0 -13.28 -1.17 -19.34 -4.30 l-8.40 -4.30 -4.30 3.91 c-3.52 3.32 -6.84 4.10 -17.58 4.10 -11.33 0 -13.67 -0.59 -17.38 -4.69 l-4.49 -4.69 -4.10 4.69 c-3.91 4.49 -5.08 4.49 -36.91 4.88 -18.16 0.20 -37.89 0.39 -43.95 0.39 -7.42 0.20 -12.70 -0.98 -16.41 -3.32 -4.69 -3.13 -5.47 -3.13 -8.59 -0.39 -2.54 2.15 -7.42 3.13 -17.19 3.13 -11.13 0 -14.26 -0.78 -17.19 -3.91 l-3.52 -3.91 -4.30 3.91 c-5.47 5.08 -26.95 5.66 -33.79 0.78 -4.10 -2.73 -4.88 -2.73 -7.81 -0.20 -2.73 2.54 -8.98 3.13 -33.01 3.13 -26.17 0 -30.27 -0.59 -34.38 -3.71 -4.69 -3.71 -4.88 -3.71 -8.20 0 -4.88 5.47 -25.78 5.47 -32.42 0.20 -4.69 -3.71 -4.88 -3.71 -9.38 0 -3.32 2.73 -7.62 3.71 -17.19 3.71 -10.74 0 -13.28 -0.59 -16.80 -4.69 l-4.10 -4.49 -9.77 4.88 c-14.45 7.23 -33.59 7.23 -47.07 -0.20 -5.27 -2.93 -11.13 -6.25 -12.89 -7.62 -2.73 -1.76 -4.49 -1.37 -9.38 2.93 -7.03 5.86 -23.05 11.13 -33.20 10.94 -3.91 0 -10.74 -1.17 -15.43 -2.73z m100.78 -17.58 c-0.39 -0.20 -4.88 -0.98 -10.35 -1.37 -8.98 -0.98 -9.38 -0.78 -4.10 1.37 4.30 1.76 16.60 1.95 14.45 0z m-73.83 -0.98 c2.15 -1.37 -0.78 -1.95 -9.77 -1.95 -16.41 0 -23.63 -4.30 -28.32 -16.41 -4.88 -12.89 -3.52 -35.74 2.73 -44.53 l4.69 -6.45 -4.49 3.91 c-15.04 13.09 -15.04 42.97 0.20 57.03 10.35 9.38 27.15 13.48 34.96 8.40z m125 -16.41 c0 -10.16 0.98 -20.90 2.15 -24.02 1.37 -3.71 1.37 -5.66 0 -6.05 -1.17 -0.39 -2.15 -1.95 -2.15 -3.52 0 -1.56 -1.37 -2.73 -2.93 -2.73 -2.54 0 -2.93 4.30 -2.93 27.34 0 23.05 0.39 27.34 2.93 27.34 2.34 0 2.93 -3.32 2.93 -18.36z m41.02 1.37 c0 -9.57 0.78 -20.51 1.76 -24.41 1.37 -5.86 1.17 -7.42 -0.98 -7.42 -1.56 0 -5.47 -1.95 -8.59 -4.30 -4.69 -3.32 -6.64 -3.71 -10.16 -1.95 l-4.49 2.15 4.49 0 c2.54 0.20 6.64 2.34 9.18 5.08 4.69 4.49 4.88 6.05 4.88 26.37 0 13.09 0.78 21.48 1.95 21.48 1.17 0 1.95 -7.03 1.95 -16.99z m42.58 -2.93 c-0.98 -22.85 -3.32 -29.10 -12.11 -33.79 -5.47 -2.93 -7.03 -3.13 -11.13 -0.78 -4.49 2.73 -4.49 2.73 4.10 3.71 11.72 1.37 13.67 5.47 13.67 30.86 0 16.99 0.39 19.92 3.13 19.92 2.73 0 3.13 -2.54 2.34 -19.92z m33.59 -0.78 c0 -11.33 0.98 -22.27 1.95 -24.41 1.37 -2.54 1.37 -3.71 0 -3.71 -0.98 0 -1.95 -1.37 -1.95 -2.93 0 -1.56 -1.37 -2.93 -2.93 -2.93 -2.54 0 -2.93 4.30 -2.93 27.34 0 23.05 0.39 27.34 2.93 27.34 2.34 0 2.93 -3.52 2.93 -20.70z m41.41 15.43 c0 -3.13 0 -10.35 -0.20 -16.21 -0.20 -5.86 0.39 -14.45 1.37 -18.95 1.56 -6.84 1.37 -8.40 -0.78 -8.40 -1.56 0 -5.47 -1.95 -8.40 -4.10 -4.69 -3.52 -6.64 -3.91 -11.33 -2.15 -5.47 1.95 -5.47 1.95 -0.59 2.15 2.73 0.20 7.03 1.56 9.38 3.32 4.10 2.73 4.30 4.30 4.30 26.37 0 19.34 0.59 23.24 2.93 23.24 1.76 0 3.13 -1.95 3.32 -5.27z m42.38 -12.70 c0 -9.96 -0.98 -21.29 -2.34 -25 -2.93 -8.59 -12.50 -14.45 -19.14 -11.91 l-4.69 1.95 5.08 0 c2.93 0.20 7.23 1.95 9.77 3.91 4.30 3.52 4.69 5.27 5.27 26.37 0.59 17.97 1.37 22.66 3.52 22.66 2.15 0 2.73 -3.71 2.54 -17.97z m44.73 16.60 c-1.95 -0.39 -5.08 -0.39 -6.84 0 -1.95 0.59 -0.39 0.98 3.32 0.98 3.71 0 5.27 -0.39 3.52 -0.98z m28.32 0 c-1.76 -0.59 -2.54 -6.45 -2.54 -19.34 0 -12.89 -0.98 -20.31 -2.93 -24.22 -1.76 -3.32 -3.32 -5.86 -3.52 -5.86 -0.20 0 -0.39 9.96 -0.39 22.07 0 22.66 1.76 28.32 8.79 28.32 1.95 0 2.15 -0.20 0.59 -0.98z m32.62 -19.34 c0 -11.33 0.98 -22.27 1.95 -24.41 1.37 -2.54 1.37 -3.71 0 -3.71 -0.98 0 -1.95 -1.37 -1.95 -2.93 0 -1.56 -1.37 -2.93 -2.93 -2.93 -2.54 0 -2.93 4.30 -2.93 27.34 0 23.05 0.39 27.34 2.93 27.34 2.34 0 2.93 -3.52 2.93 -20.70z m42.97 0.20 c0 -14.26 -0.98 -22.46 -2.93 -26.17 -3.52 -6.84 -12.89 -11.13 -17.97 -8.20 -3.13 1.76 -2.93 1.95 1.95 2.15 2.93 0 7.03 1.76 9.18 3.91 3.52 3.52 3.91 6.45 3.91 26.37 0 18.75 0.59 22.46 2.93 22.46 2.34 0 2.93 -3.52 2.93 -20.51z m55.66 18.55 c0.78 -1.17 -2.15 -1.95 -7.62 -1.95 -12.30 0 -16.80 -5.86 -16.80 -22.66 0 -19.34 5.08 -25.98 20.12 -26.37 l6.25 -0.20 -5.27 -1.76 c-10.16 -3.91 -23.24 7.81 -26.17 23.05 -1.76 8.79 2.34 18.95 10.16 25.98 6.84 5.86 16.80 8.01 19.34 3.91z m24.41 -39.06 c0 -35.16 -0.39 -41.02 -2.93 -41.02 -2.34 0 -2.93 3.13 -2.93 15.63 0 12.70 -0.59 15.63 -2.93 15.63 -2.73 0 -2.73 0.59 0 5.86 3.71 7.23 3.71 23.44 0.20 32.23 -2.54 6.05 -2.54 6.84 0 6.84 1.37 0 2.73 1.37 2.73 2.93 0 1.56 1.37 2.93 2.93 2.93 2.54 0 2.93 -5.86 2.93 -41.02z m-196.88 36.72 c-1.37 -1.37 -2.34 -5.86 -2.34 -10.16 -0.20 -7.42 -0.39 -7.81 -2.93 -4.30 -1.56 2.15 -2.93 4.49 -2.93 5.27 0 1.76 7.81 11.52 9.38 11.52 0.59 0 0.20 -0.98 -1.17 -2.34z m-308.79 -4.69 c-3.13 -4.10 -4.10 -8.01 -4.10 -17.77 0 -6.84 0.98 -14.45 2.34 -16.80 1.95 -3.91 1.95 -4.10 -0.98 -1.76 -4.49 3.71 -7.81 15.43 -6.45 22.46 1.17 5.47 9.77 18.95 12.11 18.95 0.59 0 -0.78 -2.34 -2.93 -5.08z m42.77 -9.18 c3.13 -6.84 3.32 -9.77 1.95 -15.43 -1.17 -3.91 -3.13 -7.81 -4.49 -8.98 -1.76 -1.56 -2.34 1.76 -2.34 15.43 0 9.57 0.20 17.38 0.59 17.38 0.39 0 2.34 -3.71 4.30 -8.40z m-92.58 -10.16 c4.49 -5.86 6.25 -6.84 13.48 -6.84 5.86 0 8.79 -0.98 9.57 -3.13 2.15 -5.66 1.17 -6.25 -7.62 -6.05 -7.62 0.39 -9.38 -0.39 -14.45 -6.05 -6.64 -7.03 -11.52 -7.81 -17.77 -2.73 -3.52 2.93 -4.30 5.47 -4.30 13.67 0 18.16 11.13 24.02 21.09 11.13z m67.97 -6.64 c-1.17 -1.56 -4.69 2.34 -4.69 5.47 0 6.05 2.93 6.64 4.10 0.78 0.59 -2.93 0.78 -5.86 0.59 -6.25z m464.06 6.84 c0 -1.56 -1.37 -3.32 -3.13 -3.91 -4.49 -1.76 -4.69 -1.56 -4.69 2.73 0 2.54 1.37 3.91 3.91 3.91 2.15 0 3.91 -1.17 3.91 -2.73z m-459.57 -26.95 c-3.91 -1.37 -6.84 -1.37 -9.77 0 -3.52 1.76 -2.73 2.15 5.47 2.15 8.98 -0.20 9.38 -0.20 4.30 -2.15z m-71.68 -21.09 c-1.56 -0.98 -6.45 -1.95 -10.74 -1.95 -4.30 0 -9.18 0.98 -10.74 1.95 -1.95 1.37 1.17 1.95 10.74 1.95 9.57 0 12.70 -0.59 10.74 -1.95z"/>
  <path d="M1286.52 1060.35 c-16.02 -3.71 -28.52 -13.28 -36.13 -27.93 -4.49 -8.79 -5.08 -12.30 -5.27 -28.52 0 -16.99 0.59 -19.53 5.86 -29.10 15.23 -27.34 45.70 -36.72 74.41 -22.66 7.62 3.71 12.11 7.62 16.60 14.65 3.91 5.86 7.03 8.98 8.79 8.40 1.56 -0.59 2.73 -2.15 2.73 -3.52 0 -1.95 4.69 -2.54 20.12 -2.54 10.94 0.20 20.31 0.78 20.90 1.37 0.59 0.59 3.71 3.13 7.03 5.47 l6.05 4.30 3.91 -5.27 c3.91 -5.27 4.10 -5.27 31.84 -5.86 21.29 -0.39 29.10 0.20 33.59 2.34 7.42 3.71 11.33 2.15 11.33 -4.69 0 -2.93 1.76 -7.42 3.71 -9.96 3.13 -3.91 6.05 -4.88 18.75 -5.66 16.99 -1.17 19.14 0.20 21.29 12.50 1.17 6.45 1.95 7.42 5.86 6.64 3.32 -0.59 5.66 0.39 8.01 3.71 l3.52 4.49 6.84 -4.30 c4.69 -2.73 11.52 -4.49 21.29 -5.47 7.81 -0.59 14.26 -0.59 14.26 0 0 0.59 2.93 2.15 6.64 3.52 3.52 1.37 8.01 4.10 9.96 6.25 3.52 3.91 3.71 3.91 6.05 -1.56 2.54 -6.45 10.94 -8.79 25 -7.03 4.49 0.39 12.50 0.20 17.77 -0.59 8.20 -1.37 10.35 -0.98 14.26 2.15 3.71 3.32 4.30 5.86 4.30 17.19 0 14.26 -3.71 21.09 -11.52 21.09 -9.38 0 -9.96 1.17 -9.96 23.44 0 26.17 -0.98 27.34 -21.09 27.34 -12.30 0 -14.26 -0.59 -17.38 -4.49 l-3.32 -4.49 -8.98 4.88 c-11.91 6.84 -32.03 7.03 -44.73 0.39 l-8.40 -4.30 -4.69 4.30 c-6.45 6.05 -27.54 6.25 -39.26 0.20 -4.49 -2.34 -8.79 -5.27 -9.38 -6.45 -0.98 -1.17 -2.93 0.39 -5.08 3.91 -3.52 5.86 -4.10 6.05 -17.97 6.05 -15.63 0 -20.90 -2.93 -20.90 -11.33 0 -2.34 -0.78 -4.30 -1.95 -4.30 -0.98 0 -1.95 2.15 -1.95 4.49 0 8.20 -5.66 11.13 -21.09 11.13 -11.52 0 -14.26 -0.59 -16.60 -3.91 -2.54 -3.71 -2.73 -3.71 -10.16 0 -16.41 8.40 -38.67 6.84 -53.52 -4.10 -4.49 -3.13 -8.40 -5.66 -9.18 -5.66 -0.59 0 -4.10 2.34 -7.62 5.08 -12.11 9.18 -28.32 12.30 -44.53 8.40z m25.39 -19.92 c3.71 -1.95 2.15 -2.34 -10.16 -1.76 -16.60 0.98 -21.88 -1.37 -28.32 -11.91 -4.88 -8.01 -5.47 -36.13 -0.98 -45.31 l2.93 -5.86 -4.69 5.66 c-11.13 13.48 -10.16 33.59 2.15 48.05 3.91 4.49 9.96 9.57 13.09 10.94 7.62 3.32 20.31 3.32 25.98 0.20z m69.53 1.17 c-2.54 -0.39 -6.45 -0.39 -8.79 0 -2.54 0.39 -0.59 0.78 4.30 0.78 4.88 0 6.84 -0.39 4.49 -0.78z m50.20 -15.82 c0 -9.38 0.98 -20.12 1.95 -23.83 1.37 -4.49 1.37 -7.03 0 -7.42 -0.98 -0.39 -1.95 -1.95 -1.95 -3.52 0 -1.56 -1.37 -2.73 -2.93 -2.73 -2.54 0 -2.93 4.30 -2.93 27.34 0 23.05 0.39 27.34 2.93 27.34 2.34 0 2.93 -3.13 2.93 -17.19z m42.97 -4.88 c0 -24.22 -1.37 -28.32 -11.52 -32.62 -4.10 -1.56 -6.84 -1.76 -9.38 -0.20 -3.13 1.76 -2.93 1.95 1.56 2.15 2.93 0 7.23 1.76 9.77 3.71 4.30 3.52 4.69 5.27 5.27 26.37 0.39 12.50 1.56 22.66 2.54 22.66 0.98 0 1.76 -9.96 1.76 -22.07z m56.64 20.31 c0 -1.17 -3.32 -2.15 -7.23 -2.54 l-7.42 -0.59 -1.56 -16.60 c-0.78 -9.18 -0.98 -19.53 -0.39 -22.85 1.17 -6.05 1.76 -6.45 8.79 -6.45 10.16 0 10.16 -3.52 0.20 -5.08 -7.42 -1.17 -7.81 -1.56 -8.40 -9.38 -0.39 -5.66 -1.56 -8.20 -3.91 -8.59 -2.93 -0.59 -3.52 0.78 -3.52 9.18 0 9.57 -0.20 9.96 -5.27 10.16 l-5.47 0.20 4.88 1.37 c4.69 1.37 4.88 2.15 5.86 20.70 1.17 19.73 3.13 26.56 9.38 30.08 4.30 2.54 14.06 2.73 14.06 0.39z m55.27 0.39 c-2.54 -0.39 -6.84 -0.39 -9.77 0 -3.13 0.39 -0.98 0.78 4.30 0.78 5.47 0 7.81 -0.39 5.47 -0.78z m50.20 -18.75 c0 -15.04 0.78 -21.09 3.13 -24.41 2.73 -4.10 2.73 -4.30 -0.98 -4.30 -2.34 0 -4.10 -1.37 -4.10 -2.93 0 -1.56 -0.78 -2.93 -1.95 -2.93 -1.17 0 -1.95 10.35 -1.95 27.34 0 23.05 0.39 27.34 2.93 27.34 2.34 0 2.93 -3.52 2.93 -20.12z m-281.05 -15.63 c-0.39 -4.88 -1.37 -6.84 -2.54 -5.66 -3.13 3.13 -3.91 16.60 -1.37 22.85 l2.54 5.86 0.98 -7.81 c0.59 -4.30 0.78 -11.13 0.39 -15.23z m202.93 7.03 c0 -11.13 -0.59 -14.45 -2.15 -12.89 -4.88 4.88 -3.91 27.93 1.17 27.93 0.59 0 0.98 -6.84 0.98 -15.04z m-249.22 0.20 c6.05 -6.64 7.23 -7.03 14.65 -6.05 5.27 0.59 8.01 0.20 8.01 -1.17 0 -1.37 0.59 -4.30 1.17 -6.84 1.17 -4.10 0.78 -4.30 -4.30 -3.13 -9.18 2.34 -12.89 1.37 -18.95 -5.08 -12.11 -12.89 -25.39 -2.73 -22.07 17.19 2.15 13.67 11.72 15.82 21.48 5.08z m91.80 -5.08 c-2.73 -9.38 -4.49 -10.55 -4.69 -2.93 0 5.27 0.78 7.23 3.13 7.23 2.15 0 2.73 -1.17 1.56 -4.30z m202.34 -1.76 c-2.54 -8.98 -3.91 -9.38 -3.91 -1.17 0 4.88 0.78 7.23 2.73 7.23 2.34 0 2.54 -1.37 1.17 -6.05z m-293.75 -41.21 c-4.10 -2.34 -21.88 -1.17 -24.61 1.56 -0.98 0.98 4.49 1.56 13.28 1.17 11.52 -0.59 14.06 -1.17 11.33 -2.73z"/>
  <path d="M156.25 708.40 c-4.69 -2.34 -4.88 -3.52 -5.47 -20.31 l-0.59 -17.97 8.01 -4.10 c4.30 -2.15 7.81 -4.88 7.81 -5.86 0 -0.98 2.34 -1.76 5.47 -1.76 6.45 0.20 24.02 -6.64 24.02 -9.18 0.20 -0.98 -8.01 -4.88 -18.16 -8.59 -28.71 -11.13 -26.95 -9.18 -26.95 -28.13 0 -13.28 0.59 -16.80 3.52 -19.34 4.49 -4.10 10.16 -4.10 18.95 -0.59 3.71 1.56 6.84 2.34 6.84 1.56 0 -0.78 0.78 -0.39 1.56 0.98 0.78 1.17 3.13 2.54 5.27 2.93 2.15 0.20 4.30 1.17 4.88 1.76 0.98 1.17 26.95 11.72 30.27 12.30 1.17 0.20 3.91 1.37 6.05 2.73 2.34 1.17 4.69 1.56 5.47 0.98 0.59 -0.59 1.17 -0.39 1.17 0.59 0 1.17 4.30 3.52 9.77 5.47 5.27 1.95 11.91 5.27 14.65 7.42 4.49 3.52 4.88 5.08 4.88 19.34 0 17.97 -0.78 19.14 -18.95 26.76 -17.58 7.23 -59.38 25.78 -66.99 29.69 -10.16 5.08 -16.21 6.05 -21.48 3.32z m22.46 -23.83 c3.32 -1.17 12.11 -5.27 19.53 -8.79 7.62 -3.52 21.09 -9.57 30.27 -13.67 15.04 -6.64 16.60 -7.81 17.19 -13.09 0.59 -5.86 0.59 -5.86 -37.70 -21.68 -21.09 -8.79 -39.26 -16.02 -40.23 -16.02 -0.98 0 -1.76 1.17 -1.76 2.73 0 1.56 11.91 7.23 31.25 14.84 l31.25 12.30 0 7.23 0 7.42 -18.95 8.20 c-40.23 17.58 -43.55 19.34 -43.55 22.46 0 2.54 0.98 2.93 3.52 1.95 1.76 -0.78 6.05 -2.54 9.18 -3.91z"/>
 </g>
 <g fill="#2c2d31">
  <path d="M441.99 1054.49 c1.76 -1.17 2.93 -2.73 2.34 -3.91 -0.78 -0.98 0.20 -1.76 1.76 -1.76 1.76 0 3.13 0.59 3.13 1.17 0 1.76 -6.45 6.45 -8.79 6.45 -0.98 0 -0.39 -0.78 1.56 -1.95z"/>
  <path d="M714.26 1022.07 c-2.15 -1.95 -1.56 -4.88 0.59 -3.52 1.17 0.78 2.15 -1.17 2.15 -4.30 l0.20 -5.47 1.37 5.86 c1.95 7.81 -0.39 11.52 -4.30 7.42z"/>
  <path d="M492.19 976.56 c0 -0.98 1.37 -1.95 2.93 -1.95 1.56 0 2.93 -0.78 2.93 -1.95 0 -0.98 1.56 -1.95 3.52 -1.95 2.73 0 2.34 0.78 -1.56 3.91 -5.47 4.30 -7.81 4.88 -7.81 1.95z"/>
  <path d="M691.41 972.85 c0 -2.15 13.48 -6.84 15.04 -5.27 0.59 0.59 -0.59 1.56 -2.54 2.34 -1.95 0.59 -5.66 1.95 -8.01 2.93 -2.73 0.98 -4.49 0.98 -4.49 0z"/>
  <path d="M61.13 857.42 c0 -4.88 0.39 -6.84 0.78 -4.30 0.39 2.34 0.39 6.25 0 8.79 -0.39 2.34 -0.78 0.39 -0.78 -4.49z"/>
  <path d="M1938.09 767.58 c0 -7.03 0.39 -9.77 0.78 -6.25 0.39 3.32 0.39 9.18 0 12.70 -0.39 3.32 -0.78 0.59 -0.78 -6.45z"/>
  <path d="M183.59 685.55 c0 -3.13 1.37 -3.91 6.84 -3.91 7.62 0 8.40 1.17 3.52 5.08 -5.27 3.91 -10.35 3.32 -10.35 -1.17z"/>
  <path d="M61.13 644.53 c0 -4.88 0.39 -6.84 0.78 -4.30 0.39 2.34 0.39 6.25 0 8.79 -0.39 2.34 -0.78 0.39 -0.78 -4.49z"/>
  <path d="M102.34 522.46 c1.56 -1.56 3.91 -2.93 5.27 -2.93 1.37 0 0.78 1.17 -1.37 2.93 -4.88 3.71 -7.81 3.71 -3.91 0z"/>
  <path d="M110.16 485.16 c-14.26 -4.88 -14.65 -6.05 -14.26 -50.98 l0.20 -39.84 5.47 -5.27 5.27 -5.47 890.82 -0.39 890.82 -0.39 5.47 4.69 5.47 4.69 0.98 39.84 c0.59 25.39 0.20 40.23 -0.98 41.02 -0.98 0.78 -1.17 1.56 -0.39 1.56 2.73 0 -9.18 9.18 -13.67 10.55 -2.54 0.78 -401.17 1.76 -886.13 1.95 -725.98 0.59 -883.01 0.20 -889.06 -1.95z m61.72 -10.55 c0 -0.98 1.76 -1.95 3.71 -1.95 5.47 0 10.16 -2.15 8.79 -4.10 -0.59 -0.98 0.20 -1.76 1.76 -1.76 3.32 0 9.57 -6.64 7.81 -8.40 -0.59 -0.78 -0.20 -1.37 1.17 -1.37 1.37 0 1.76 -0.78 1.17 -1.95 -0.59 -0.98 -0.20 -1.95 0.98 -1.95 1.17 0 1.56 -0.78 0.98 -1.95 -0.59 -0.98 -0.39 -1.95 0.78 -1.95 2.93 0 1.17 -25.59 -2.34 -32.42 -4.49 -8.79 -14.45 -17.77 -21.48 -19.34 -11.33 -2.54 -21.68 -2.73 -27.73 -0.20 -6.45 2.73 -19.73 14.84 -18.95 17.38 0.20 0.78 -0.59 1.37 -1.76 1.37 -0.98 0 -1.37 0.98 -0.78 1.95 0.59 1.17 0.39 1.95 -0.78 1.95 -1.17 0 -1.56 1.37 -0.98 2.93 0.78 1.56 0.20 2.93 -0.98 2.93 -2.73 0 -2.73 13.09 0 21.68 3.71 10.94 11.52 19.53 22.07 24.41 10.16 4.49 26.56 6.25 26.56 2.73z m107.42 0.39 c0 -0.98 3.52 -2.93 7.81 -4.30 6.84 -2.34 18.75 -11.72 14.65 -11.72 -0.98 0 -0.20 -1.17 1.76 -2.54 5.08 -3.71 7.23 -19.53 4.49 -30.27 -1.95 -7.81 -10.74 -21.09 -16.02 -24.61 -9.77 -6.45 -26.37 -8.20 -37.50 -3.91 -4.69 1.56 -8.40 3.71 -8.40 4.69 0 0.78 -1.95 1.95 -4.30 2.54 -2.34 0.78 -3.71 1.76 -2.93 2.54 0.78 0.78 -0.39 2.54 -2.54 4.10 -2.15 1.56 -3.32 3.91 -2.73 5.47 0.78 1.56 0.20 2.93 -0.98 2.93 -1.17 0 -1.56 1.37 -0.98 2.93 0.78 1.56 0.39 2.93 -0.59 2.93 -0.98 0 -1.56 5.27 -1.37 11.91 0.39 15.63 7.23 25.98 22.27 33.40 10.35 5.08 27.34 7.42 27.34 3.91z m107.42 -0.78 c0 -0.98 1.76 -1.56 3.71 -1.56 2.15 0 5.08 -1.37 6.84 -2.93 1.56 -1.56 3.71 -2.93 4.69 -2.93 2.73 0 8.40 -7.03 6.84 -8.40 -0.59 -0.78 -0.20 -1.37 1.17 -1.37 1.37 0 1.76 -0.78 1.17 -1.95 -0.59 -0.98 -0.20 -1.95 0.98 -1.95 1.17 0 1.76 -0.78 0.98 -1.76 -0.59 -0.98 -0.20 -2.34 0.78 -3.13 3.13 -1.76 0.78 -23.44 -3.52 -31.84 -3.52 -6.84 -13.87 -17.77 -17.38 -18.16 -0.78 0 -3.13 -0.59 -5.27 -0.98 -9.96 -2.34 -19.34 -2.34 -25 0 -6.64 2.73 -23.05 17.97 -21.29 19.73 0.59 0.59 0 0.98 -1.17 0.98 -1.17 0 -1.76 1.37 -1.17 2.93 0.78 1.56 0.39 2.93 -0.39 2.93 -1.76 0 -1.76 16.80 0 24.41 0.39 2.15 0.98 4.49 0.98 5.27 0.59 4.10 12.11 14.45 20.12 17.97 8.79 3.91 26.95 5.66 26.95 2.73z"/>
  <path d="M175.78 458.01 c0 -3.52 0.98 -4.88 3.91 -4.88 3.13 0 3.91 -1.37 3.91 -5.86 0 -4.49 0.78 -5.86 3.91 -5.86 5.08 0 5.08 4.69 -0.39 12.30 -7.23 10.35 -11.33 11.91 -11.33 4.30z"/>
  <path d="M281.25 459.77 c0 -3.91 0.98 -4.69 5.86 -4.69 5.27 0 5.66 0.39 3.52 3.71 -1.37 2.15 -3.91 4.30 -5.86 4.69 -2.73 0.78 -3.52 -0.20 -3.52 -3.71z"/>
  <path d="M390.63 457.81 c0 -3.32 1.17 -4.69 3.71 -4.69 3.13 0 3.91 -1.95 5.08 -12.70 0.59 -7.03 2.15 -12.70 2.93 -12.70 3.32 0 6.05 7.62 4.69 13.09 -3.52 14.84 -16.41 28.13 -16.41 16.99z"/>
  <path d="M137.30 350.20 c17.97 -0.39 47.27 -0.39 65.43 0 17.97 0.20 3.13 0.59 -32.81 0.59 -35.94 0 -50.78 -0.39 -32.62 -0.59z"/>
 </g>
 <g fill="#4cf985">
  <path d="M125.39 1531.84 c12.70 -0.39 33.40 -0.39 46.09 0 12.50 0.20 2.15 0.59 -23.05 0.59 -25.20 0 -35.55 -0.39 -23.05 -0.59z"/>
  <path d="M623.63 1531.84 c233.98 -0.39 616.41 -0.39 849.61 0 233.40 0.20 41.99 0.39 -425.39 0.39 -467.19 0 -658.20 -0.20 -424.22 -0.39z"/>
  <path d="M61.13 1486.33 c0 -4.88 0.39 -6.84 0.78 -4.30 0.39 2.34 0.39 6.25 0 8.79 -0.39 2.34 -0.78 0.39 -0.78 -4.49z"/>
  <path d="M1940.23 1453.13 c0 -19.92 0.39 -27.93 0.59 -17.97 0.39 9.77 0.39 26.17 0 36.13 -0.20 9.77 -0.59 1.76 -0.59 -18.16z"/>
  <path d="M1940.04 1361.33 c0 -5.86 0.39 -8.40 0.78 -5.27 0.39 2.93 0.39 7.62 0 10.74 -0.39 2.93 -0.78 0.39 -0.78 -5.47z"/>
  <path d="M1940.04 1334.96 c0 -6.45 0.39 -8.79 0.78 -5.27 0.39 3.52 0.39 8.79 0 11.72 -0.39 2.93 -0.78 0 -0.78 -6.45z"/>
  <path d="M61.33 1245.12 c0 -34.38 0.39 -48.24 0.59 -30.66 0.39 17.58 0.39 45.70 0 62.50 -0.20 16.80 -0.59 2.54 -0.59 -31.84z"/>
  <path d="M1940.43 1142.58 c0 -72.46 0.20 -102.15 0.39 -66.02 0.39 36.33 0.39 95.70 0 131.84 -0.20 36.33 -0.39 6.64 -0.39 -65.82z"/>
  <path d="M513.67 1048.83 c-14.45 -3.52 -25 -22.46 -22.27 -40.23 2.73 -18.55 15.63 -28.91 34.57 -27.54 17.58 0.98 27.93 10.74 30.08 28.32 l1.17 10.16 -23.83 0 c-25.59 0 -27.34 0.78 -19.92 9.96 4.69 5.86 19.14 6.64 24.80 1.37 3.52 -2.93 4.10 -2.93 9.57 1.76 l5.66 5.08 -5.27 4.49 c-8.79 7.62 -20.70 9.77 -34.57 6.64z m25.39 -42.97 c0 -3.91 -9.57 -11.72 -14.26 -11.72 -5.66 0 -15.04 6.84 -15.04 10.94 0 2.15 3.32 2.73 14.65 2.73 8.98 0 14.65 -0.78 14.65 -1.95z"/>
  <path d="M627.73 1048.63 c-11.13 -2.54 -23.05 -13.28 -27.54 -24.80 -6.25 -16.41 -3.13 -40.82 6.84 -51.76 1.76 -2.15 7.23 -6.05 11.91 -8.79 17.58 -10.35 44.14 -4.88 53.52 11.13 l3.52 6.05 -7.03 3.32 c-7.03 3.32 -7.23 3.32 -10.35 -0.78 -11.13 -13.87 -33.59 -10.35 -40.63 6.45 -6.05 14.26 -0.59 34.96 10.74 40.63 10.35 5.47 19.34 4.10 26.95 -3.91 6.25 -6.64 6.84 -6.84 12.30 -4.69 8.01 3.32 7.42 8.59 -1.56 17.58 -10.55 10.55 -21.68 13.28 -38.67 9.57z"/>
  <path d="M701.95 1047.07 c-4.49 -1.95 -10.16 -6.64 -12.70 -10.16 -3.91 -5.66 -4.69 -8.98 -4.69 -21.68 0 -17.19 2.93 -23.05 15.82 -30.27 14.26 -8.20 31.84 -5.08 43.16 7.81 15.82 18.16 6.84 49.41 -16.02 55.86 -10.74 2.93 -16.41 2.54 -25.59 -1.56z m22.46 -14.84 c6.64 -3.32 8.01 -6.25 8.01 -17.77 0 -18.36 -20.51 -25.78 -28.32 -10.35 -5.86 11.13 -2.15 25.20 7.62 29.10 5.66 2.34 6.45 2.34 12.70 -0.98z"/>
  <path d="M1008.40 1048.63 c-8.40 -2.34 -14.26 -10.35 -14.26 -19.14 0 -14.06 10.74 -21.68 30.27 -21.68 9.18 0 10.74 -0.59 10.74 -3.71 0 -8.59 -14.26 -11.52 -24.41 -4.88 -5.27 3.52 -5.47 3.52 -8.98 -0.98 -5.47 -6.84 -4.49 -9.77 4.69 -13.87 16.21 -7.42 37.50 -3.52 43.36 8.01 1.95 3.71 2.93 11.52 2.93 24.22 0 11.13 0.78 18.55 1.95 18.55 1.17 0 1.95 3.13 1.95 6.84 0 6.84 0 6.84 -8.59 6.84 -5.66 0 -8.98 -0.98 -9.57 -2.73 -0.98 -2.34 -2.34 -2.15 -8.59 0.98 -7.81 4.10 -11.91 4.30 -21.48 1.56z m22.85 -17.38 c2.15 -2.15 3.91 -6.25 3.91 -8.98 0 -4.88 -0.39 -5.08 -7.23 -3.91 -12.11 2.15 -14.06 3.13 -15.23 7.23 -2.93 8.98 10.94 13.28 18.55 5.66z"/>
  <path d="M1163.09 1048.05 c-12.50 -5.66 -18.55 -16.60 -18.55 -33.01 0.20 -13.09 5.86 -25.59 14.06 -30.66 7.62 -4.69 19.73 -5.08 27.73 -0.98 2.93 1.56 5.86 2.93 6.25 2.93 0.39 0 0.78 -7.03 0.78 -15.63 l0 -15.63 8.79 0 8.79 0 0 46.88 0 46.88 -8.79 0 c-6.84 0 -8.79 -0.78 -8.79 -3.13 0 -2.93 -0.39 -2.93 -4.69 0 -6.84 4.49 -18.75 5.66 -25.59 2.34z m24.22 -18.55 c9.18 -9.18 6.05 -29.88 -4.69 -32.62 -15.82 -3.91 -27.15 17.58 -16.41 31.25 4.88 6.25 15.43 7.03 21.09 1.37z"/>
  <path d="M1284.77 1047.85 c-16.60 -5.27 -28.91 -24.41 -28.91 -45.12 0 -26.95 24.41 -48.83 49.61 -44.53 10.94 1.76 16.99 5.08 24.41 13.48 6.84 7.81 6.64 9.18 -1.76 12.70 -5.47 2.15 -6.25 1.95 -12.70 -3.71 -11.91 -10.55 -30.27 -7.23 -36.91 6.45 -7.03 14.84 -2.54 35.35 9.57 43.36 8.01 5.27 22.07 2.73 28.52 -5.08 5.08 -6.05 5.27 -6.05 11.33 -3.13 3.32 1.76 6.05 4.88 6.05 6.64 0 3.71 -9.96 14.06 -16.80 17.58 -7.23 3.71 -22.66 4.30 -32.42 1.37z"/>
  <path d="M1364.65 1048.05 c-14.45 -5.27 -20.90 -15.63 -20.90 -33.79 0 -14.26 4.69 -23.44 14.84 -29.30 9.57 -5.66 24.61 -5.86 33.98 -0.78 8.20 4.30 15.63 17.58 15.63 27.73 l0 7.42 -22.85 0.59 c-12.89 0.39 -23.05 1.37 -23.24 2.54 -0.39 1.17 0.98 4.10 3.13 6.84 2.93 3.91 5.47 4.88 12.30 4.88 5.47 0 10.16 -1.17 12.50 -3.32 3.52 -3.32 4.10 -3.13 9.96 0.98 3.32 2.34 6.25 4.88 6.25 5.66 0 2.54 -10.74 8.98 -18.55 11.13 -9.96 2.73 -13.87 2.54 -23.05 -0.59z m25.98 -41.99 c0 -0.98 -1.56 -3.71 -3.71 -6.25 -2.54 -3.32 -5.66 -4.49 -10.94 -4.49 -5.27 0 -8.40 1.17 -10.94 4.49 -2.15 2.54 -3.71 5.27 -3.71 6.25 0 0.98 6.64 1.76 14.65 1.76 8.01 0 14.65 -0.78 14.65 -1.76z"/>
  <path d="M1571.29 1049.02 c-15.63 -3.91 -24.61 -15.82 -25 -33.01 -0.39 -21.68 10.16 -33.98 30.86 -35.16 9.77 -0.59 12.70 0 18.36 3.91 9.77 6.64 13.87 13.09 15.23 24.61 l1.17 10.16 -23.83 0 c-26.17 0 -27.73 0.98 -18.55 10.74 4.30 4.69 6.05 5.27 12.89 4.30 4.30 -0.59 9.38 -2.34 10.94 -4.10 2.73 -2.54 3.52 -2.54 8.59 0.98 7.23 5.27 6.84 8.40 -1.17 13.28 -7.42 4.69 -20.70 6.64 -29.49 4.30z m22.46 -43.75 c0 -4.10 -6.25 -8.98 -13.09 -10.35 -5.08 -0.98 -7.23 -0.20 -11.13 3.71 -7.81 7.81 -6.45 9.18 9.57 9.18 10.94 0 14.65 -0.59 14.65 -2.54z"/>
  <path d="M361.33 1011.91 l0 -37.30 -12.70 0 -12.70 0 0 -7.81 0 -7.81 33.98 0 c36.91 0 37.89 0.39 35.16 10.94 -1.17 4.30 -2.15 4.69 -12.70 4.69 l-11.52 0 -0.39 36.72 -0.59 36.52 -9.18 0.59 -9.38 0.59 0 -37.11z"/>
  <path d="M416.02 1002.15 l0 -47.07 9.77 0 9.77 0 0 16.60 0 16.60 6.45 -3.91 c8.40 -5.08 20.90 -5.08 27.34 0 7.03 5.66 9.18 14.84 9.18 41.60 l0 22.85 -8.79 0 -8.79 0 0 -21.48 c0 -20.51 -0.20 -21.88 -4.88 -26.56 -5.47 -5.47 -10.74 -5.08 -17.58 1.37 -3.32 3.13 -3.91 6.84 -4.30 24.80 l-0.59 20.90 -8.79 0.59 -8.79 0.59 0 -46.88z"/>
  <path d="M764.06 1015.23 l0.59 -33.40 5.86 -0.39 c7.62 -0.39 10.74 0.78 10.74 4.10 0 3.71 1.37 3.52 7.23 -1.17 3.32 -2.54 8.01 -3.91 13.28 -3.91 5.27 0 9.96 1.37 13.28 3.91 2.73 2.15 5.47 3.91 6.25 3.91 0.78 0 3.52 -1.76 6.25 -3.91 9.77 -7.62 28.52 -3.52 33.98 7.62 1.56 3.13 2.93 15.43 3.32 31.05 l0.78 25.78 -8.98 0 -8.98 0 0 -19.92 c0 -23.44 -2.15 -29.69 -10.74 -30.47 -11.52 -1.17 -13.28 2.34 -14.26 27.73 l-0.98 22.66 -7.42 0 -7.62 0 0 -20.70 c0 -11.33 -0.98 -22.27 -1.95 -24.22 -5.27 -9.77 -17.58 -8.40 -21.48 2.54 -0.98 3.13 -1.95 14.06 -1.95 24.02 l0 18.36 -8.79 0 -8.79 0 0.39 -33.59z"/>
  <path d="M880.86 1015.63 c0 -30.27 0.39 -33.20 3.52 -33.20 1.76 0 5.27 -0.59 7.81 -1.17 3.52 -0.98 4.69 -0.39 5.66 2.93 0.98 4.10 1.37 4.10 4.69 0.98 1.95 -1.76 8.20 -3.71 13.67 -4.30 8.01 -0.78 10.94 -0.20 15.63 3.32 3.32 2.54 7.03 3.91 8.20 3.13 1.37 -0.59 4.49 -2.34 7.23 -3.91 6.84 -3.91 17.38 -3.52 24.80 0.98 8.20 4.88 10.35 13.09 10.35 41.60 l0 22.85 -8.79 0 -8.79 0 0 -19.34 c0 -10.74 -0.78 -21.68 -1.95 -24.41 -4.69 -12.70 -19.92 -9.57 -22.27 4.69 -0.59 4.30 -0.59 10.16 0 12.70 0.59 2.73 0.59 9.77 -0.20 15.63 l-1.17 10.74 -8.79 0 -8.59 0 0 -23.24 c0 -22.07 -0.20 -23.63 -4.30 -26.37 -6.05 -4.30 -8.79 -3.91 -14.26 1.76 -4.69 4.49 -4.88 6.05 -4.88 26.37 l0 21.48 -8.79 0 -8.79 0 0 -33.20z"/>
  <path d="M1070.31 1015.82 l0 -33.01 6.45 -0.98 c7.62 -0.98 11.13 0 11.13 3.71 0 1.95 1.56 1.76 6.45 -1.17 11.72 -7.23 29.30 -3.71 34.18 6.84 1.37 3.13 2.34 15.04 2.34 31.25 l0 26.37 -8.79 0 -8.79 0 0 -22.46 c0 -20.12 -0.39 -22.85 -4.10 -26.56 -4.88 -4.88 -12.50 -3.71 -17.77 2.54 -2.93 3.13 -3.52 7.81 -3.52 25.20 l0 21.29 -8.79 0 -8.79 0 0 -33.01z"/>
  <path d="M1419.92 1016.02 c0 -18.16 0.39 -33.40 0.78 -33.79 2.15 -2.15 16.80 0.78 16.80 3.32 0 3.71 1.37 3.52 7.23 -1.17 9.96 -7.81 32.42 -2.54 34.57 8.20 0.59 2.54 1.37 16.21 1.76 30.47 l0.78 25.78 -8.59 0 -8.40 0 0 -19.34 c0 -10.74 -0.78 -21.68 -1.95 -24.41 -4.49 -12.11 -19.73 -10.55 -23.44 2.54 -0.98 3.91 -1.95 14.65 -1.95 24.22 l0 16.99 -8.79 0 -8.79 0 0 -32.81z"/>
  <path d="M1511.33 1046.68 c-6.25 -3.52 -8.20 -10.35 -9.38 -30.08 -0.98 -17.97 -1.37 -19.53 -4.88 -19.53 -3.13 0 -4.10 -1.56 -4.49 -7.23 -0.59 -6.84 -0.20 -7.42 4.30 -7.42 4.69 0 5.08 -0.59 5.08 -9.96 l0 -9.77 9.38 0.59 9.18 0.59 0.59 8.01 c0.59 7.81 0.98 8.20 8.40 9.38 7.42 1.17 7.62 1.37 7.62 8.98 0 7.81 0 7.81 -7.62 7.81 -8.98 0 -9.57 1.37 -8.01 20.51 l0.98 13.67 7.03 0.59 c6.45 0.59 7.23 1.37 8.20 6.84 0.39 3.52 0.59 6.84 0 7.81 -1.17 2.15 -22.46 1.56 -26.37 -0.78z"/>
  <path d="M1625 1015.63 l0 -33.20 7.81 0 c5.66 0 7.81 0.78 7.81 2.93 0 3.91 1.37 3.71 7.23 -0.98 2.73 -2.15 7.62 -3.91 10.55 -3.91 5.47 0 5.66 0.39 5.66 8.79 0 8.40 -0.20 8.79 -5.86 8.79 -3.71 0 -7.81 1.76 -10.74 4.88 -4.49 4.49 -4.88 6.05 -4.88 25.39 l0 20.51 -8.79 0 -8.79 0 0 -33.20z"/>
  <path d="M61.33 973.63 c0 -22.46 0.39 -31.45 0.59 -19.92 0.39 11.52 0.39 30.08 0 41.02 -0.20 10.94 -0.59 1.56 -0.59 -21.09z"/>
  <path d="M1940.23 926.76 c0 -30.08 0.39 -42.19 0.59 -26.76 0.39 15.43 0.39 40.04 0 54.69 -0.20 14.65 -0.59 2.15 -0.59 -27.93z"/>
  <path d="M61.33 789.06 c0 -29.49 0.39 -41.60 0.59 -26.76 0.39 14.65 0.39 38.87 0 53.71 -0.20 14.65 -0.59 2.54 -0.59 -26.95z"/>
  <path d="M1940.43 557.62 c0 -89.06 0.20 -125.98 0.39 -81.64 0.39 44.14 0.39 117.19 0 162.11 -0.20 44.92 -0.39 8.79 -0.39 -80.47z"/>
  <path d="M161.52 697.85 c-0.78 -0.59 -1.37 -5.47 -1.37 -10.74 l0 -9.57 12.30 -5.47 c6.64 -3.13 20.70 -9.18 31.25 -13.87 10.35 -4.49 18.95 -8.98 18.95 -9.77 0 -0.78 -14.06 -6.84 -31.25 -13.67 l-31.25 -12.11 0 -10.55 c0 -7.62 0.78 -10.55 2.73 -10.55 1.37 0 16.60 5.86 33.59 12.89 17.19 7.03 36.52 15.04 43.36 17.77 l12.30 4.88 -0.59 11.72 -0.59 11.72 -41.02 18.36 c-45.51 20.51 -46.68 20.90 -48.44 18.95z"/>
  <path d="M61.33 603.52 c0 -17.77 0.39 -25 0.59 -16.02 0.39 8.79 0.39 23.24 0 32.23 -0.20 8.79 -0.59 1.56 -0.59 -16.21z"/>
  <path d="M61.33 511.72 c0 -18.75 0.39 -26.56 0.59 -16.99 0.39 9.38 0.39 24.61 0 34.18 -0.20 9.38 -0.59 1.56 -0.59 -17.19z"/>
  <path d="M150.39 463.28 c-3.71 -1.76 -8.79 -6.45 -11.33 -10.16 -3.91 -5.66 -4.49 -8.59 -3.91 -18.16 0.78 -9.96 1.76 -12.11 8.01 -18.55 6.84 -6.84 8.01 -7.23 19.92 -7.23 11.91 0 13.09 0.39 19.92 7.23 6.25 6.45 7.23 8.59 8.01 18.55 0.59 9.57 0 12.50 -3.91 18.16 -5.27 7.81 -15.43 13.67 -24.02 13.67 -3.13 0 -8.98 -1.56 -12.70 -3.52z"/>
  <path d="M260.94 464.84 c-11.72 -3.52 -18.75 -14.26 -18.75 -28.32 0 -17.77 10.16 -27.34 28.71 -27.34 11.52 0 12.70 0.39 19.53 7.42 7.23 7.03 7.42 7.81 7.42 20.70 0 11.72 -0.59 14.26 -4.88 18.75 -8.59 9.57 -19.53 12.50 -32.03 8.79z"/>
  <path d="M366.21 464.06 c-3.13 -1.37 -8.01 -5.08 -10.74 -8.01 -4.30 -4.49 -4.88 -7.03 -4.88 -18.75 0 -12.89 0.39 -13.67 7.23 -20.51 5.66 -5.86 8.79 -7.42 16.60 -8.01 21.88 -1.95 37.11 17.77 29.88 39.26 -4.49 13.87 -24.61 22.46 -38.09 16.02z"/>
  <path d="M61.13 393.55 c0 -4.30 0.39 -5.86 0.78 -3.32 0.39 2.34 0.39 5.86 0 7.81 -0.59 1.76 -0.98 -0.20 -0.78 -4.49z"/>
  <path d="M253.52 350.20 c4.49 -0.39 11.52 -0.39 15.63 0 3.91 0.39 0.20 0.78 -8.40 0.78 -8.59 0 -11.91 -0.39 -7.23 -0.78z"/>
  <path d="M438.09 350.20 c11.52 -0.39 30.27 -0.39 41.99 0 11.52 0.20 1.95 0.59 -21.09 0.59 -23.05 0 -32.62 -0.39 -20.90 -0.59z"/>
  <path d="M722.27 350.20 c74.61 -0.39 195.90 -0.39 269.53 0 73.83 0.20 12.89 0.39 -135.35 0.39 -148.24 0 -208.59 -0.20 -134.18 -0.39z"/>
  <path d="M1268.16 350.20 c72.66 -0.39 191.80 -0.39 264.65 0 72.66 0.20 13.09 0.39 -132.42 0.39 -145.51 0 -205.08 -0.20 -132.23 -0.39z"/>
  <path d="M1706.64 350.20 c2.34 -0.39 5.86 -0.39 7.81 0 1.76 0.59 -0.20 0.98 -4.49 0.78 -4.30 0 -5.86 -0.39 -3.32 -0.78z"/>
  <path d="M1775 350.20 c22.85 -0.39 59.77 -0.39 82.03 0 22.27 0.20 3.52 0.39 -41.60 0.39 -45.12 0 -63.28 -0.20 -40.43 -0.39z"/>
 </g>
</svg>